<svg xmlns="http://www.w3.org/2000/svg" width="512" height="512" viewBox="0 0 512 512"><g fill="none" fill-rule="evenodd"><rect width="414" height="414" x="49" y="49" fill="#1D1D1D" rx="57"/><path fill="#00BCFF" d="M176.405,327 L176.405398,382 L185,377.082 L185,456 L106,456 C78.3857625,456 56,433.614237 56,406 L56,327 L176.405,327 Z M320,327 L320,456 L191,456 L191,373.648 L272.518,327 L320,327 Z M456,327 L456,406 C456,433.614237 433.614237,456 406,456 L327,456 L327,327 L456,327 Z M456,192 L456,321 L327,321 L327,295.823 L383.049804,263.749612 L327,230.998 L327,192 L456,192 Z M176.405,192 L176.405,321 L56,321 L56,192 L176.405,192 Z M320,299.828 L320,321 L283.003,321 L320,299.828 Z M320,192 L320,226.907 L260.261,192 L320,192 Z M185,56 L185,148.022 L176.405398,143 L176.405,185 L56,185 L56,106 C56,78.3857625 78.3857625,56 106,56 L185,56 Z M406,56 C433.614237,56 456,78.3857625 456,106 L456,185 L327,185 L327,56 L406,56 Z M320,56 L320,185 L248.282,185 L191,151.528 L191,56 L320,56 Z"/></g></svg>