<svg xmlns="http://www.w3.org/2000/svg" width="400" height="400" viewBox="0 0 400 400"><path fill="#00BCFF" fill-rule="evenodd" d="M120.405,271 L120.405398,326 L129,321.082 L129,400 L50,400 C22.3857625,400 1.69088438e-15,377.614237 0,350 L0,271 L120.405,271 Z M264,271 L264,400 L135,400 L135,317.648 L216.518,271 L264,271 Z M400,271 L400,350 C400,377.614237 377.614237,400 350,400 L271,400 L271,271 L400,271 Z M400,136 L400,265 L271,265 L271,239.823 L327.049804,207.749612 L271,174.998 L271,136 L400,136 Z M120.405,136 L120.405,265 L0,265 L0,136 L120.405,136 Z M264,243.828 L264,265 L227.003,265 L264,243.828 Z M264,136 L264,170.907 L204.261,136 L264,136 Z M129,0 L129,92.022 L120.405398,87 L120.405,129 L0,129 L0,50 C-3.38176876e-15,22.3857625 22.3857625,3.38176876e-15 50,0 L129,0 Z M350,0 C377.614237,-5.07265313e-15 400,22.3857625 400,50 L400,129 L271,129 L271,0 L350,0 Z M264,0 L264,129 L192.282,129 L135,95.528 L135,0 L264,0 Z"/></svg>